<svg xmlns="http://www.w3.org/2000/svg" xmlns:xlink="http://www.w3.org/1999/xlink" version="1.1" width="116"
     height="24" viewBox="0 0 116 24">
    <path d="M24.2988,0.01416015625L15.641902,0.01416015625L13.21761,3.05612585625L15.304332,3.06116555625C7.6306252,9.80737685625,3.1061704,16.90366215625,0,23.99983815625C6.5317979,15.59419415625,14.45019,7.43777175625,21.068039,3.46911315625L29.326277,16.97157815625L35.851223,16.97157815625L24.874329,0.01416015625L24.2988,0.01416015625Z"
          fill-opacity="1" style="mix-blend-mode:passthrough"/>
    <path d="M102.080077625,0.01416015625L91.080515625,0.01416015625L80.103515625,16.97157815625L86.290998025,16.97157815625L94.768884625,3.63783315625L94.787088625,3.63027305625C101.413982625,7.59389205625,109.48396062500001,15.61183415625,116.00018262500001,23.99983815625C113.174678625,17.54321515625,107.567300625,8.98393345625,100.73884162499999,2.33844475625L102.080077625,0.01416015625Z"
          fill-opacity="1" style="mix-blend-mode:passthrough"/>
    <path d="M65.4299083,13.48490984375L79.755478,13.48490984375L77.374285,16.92218584375L60.046875,16.92218584375L60.046875,0.03271484375L66.5922508,0.03271484375L65.4299083,1.83825824375L65.4299083,13.48490984375Z"
          fill-opacity="1" style="mix-blend-mode:passthrough"/>
    <path d="M38.581130275,16.937281L36.21356369,13.515124L36.208984375,13.515124L36.21356369,0L42.661457975,0L41.635123275,1.7879095L41.635123275,13.517643L52.272319374999995,13.517643L52.272319374999995,0L57.698454375,0L57.698454375,16.939802L52.272319374999995,16.922163L52.272319374999995,15.491864L50.156226375,16.957441L38.581130275,16.937281Z"
          fill-opacity="1" style="mix-blend-mode:passthrough"/>
</svg>