<svg xmlns="http://www.w3.org/2000/svg" viewBox="0 0 256 256" role="img" aria-labelledby="title">
  <title id="title">Incident Response</title>
  <defs>
    <linearGradient id="badge" x1="56" y1="24" x2="202" y2="218"><stop offset="0" stop-color="#164ab4"/><stop offset=".55" stop-color="#081d58"/><stop offset="1" stop-color="#020b2b"/></linearGradient>
    <linearGradient id="edge" x1="54" y1="36" x2="206" y2="210"><stop offset="0" stop-color="#6effff"/><stop offset=".55" stop-color="#22a8ff"/><stop offset="1" stop-color="#0062ff"/></linearGradient>
    <linearGradient id="inner" x1="74" y1="72" x2="182" y2="184"><stop offset="0" stop-color="#0e2e78"/><stop offset="1" stop-color="#06133d"/></linearGradient>
    <linearGradient id="shield" x1="84" y1="72" x2="172" y2="186"><stop offset="0" stop-color="#62eaff"/><stop offset="1" stop-color="#1265d5"/></linearGradient>
    <filter id="softGlow" x="-30%" y="-30%" width="160%" height="160%"><feGaussianBlur stdDeviation="3" result="blur"/><feColorMatrix in="blur" values="0 0 0 0 .05 0 0 0 0 .68 0 0 0 0 1 0 0 0 .65 0"/><feMerge><feMergeNode/><feMergeNode in="SourceGraphic"/></feMerge></filter>
  </defs>
  <path d="M128 22 212 70v96l-84 48-84-48V70Z" fill="url(#badge)" stroke="url(#edge)" stroke-width="6" filter="url(#softGlow)"/>
  <path d="M128 50 188 85v70l-60 35-60-35V85Z" fill="url(#inner)" stroke="#35caff" stroke-opacity=".4" stroke-width="3"/>
  <circle cx="128" cy="128" r="61" fill="none" stroke="#2ea7ff" stroke-opacity=".28" stroke-width="5"/>
  <g fill="none" stroke-linecap="round" stroke-linejoin="round" filter="url(#softGlow)">
    <path d="M128 74 168 91v31c0 29-17 50-40 62-23-12-40-33-40-62V91Z" fill="url(#shield)" stroke="#d9ffff" stroke-width="5"/>
    <path d="M132 96 113 132h22l-11 32 30-44h-23Z" fill="#ffe36a" stroke="#fff7a8" stroke-width="4"/>
    <path d="M75 163l28-28M83 171l28-28" stroke="#86ffff" stroke-width="7"/>
    <path d="M160 84l18-18M171 95l18-18" stroke="#43b7ff" stroke-width="5"/>
  </g>
</svg>
