<svg xmlns="http://www.w3.org/2000/svg" viewBox="0 0 256 256" role="img" aria-labelledby="title">
  <title id="title">Threat Intelligence</title>
  <defs>
    <linearGradient id="badge" x1="56" y1="24" x2="202" y2="218"><stop offset="0" stop-color="#164ab4"/><stop offset=".55" stop-color="#081d58"/><stop offset="1" stop-color="#020b2b"/></linearGradient>
    <linearGradient id="edge" x1="54" y1="36" x2="206" y2="210"><stop offset="0" stop-color="#6effff"/><stop offset=".55" stop-color="#22a8ff"/><stop offset="1" stop-color="#0062ff"/></linearGradient>
    <linearGradient id="inner" x1="74" y1="72" x2="182" y2="184"><stop offset="0" stop-color="#0e2e78"/><stop offset="1" stop-color="#06133d"/></linearGradient>
    <linearGradient id="net" x1="76" y1="70" x2="186" y2="186"><stop offset="0" stop-color="#86ffff"/><stop offset="1" stop-color="#3aa7ff"/></linearGradient>
    <filter id="softGlow" x="-30%" y="-30%" width="160%" height="160%"><feGaussianBlur stdDeviation="3" result="blur"/><feColorMatrix in="blur" values="0 0 0 0 .05 0 0 0 0 .68 0 0 0 0 1 0 0 0 .65 0"/><feMerge><feMergeNode/><feMergeNode in="SourceGraphic"/></feMerge></filter>
  </defs>
  <path d="M128 22 212 70v96l-84 48-84-48V70Z" fill="url(#badge)" stroke="url(#edge)" stroke-width="6" filter="url(#softGlow)"/>
  <path d="M128 50 188 85v70l-60 35-60-35V85Z" fill="url(#inner)" stroke="#35caff" stroke-opacity=".4" stroke-width="3"/>
  <circle cx="128" cy="128" r="61" fill="none" stroke="#2ea7ff" stroke-opacity=".28" stroke-width="5"/>
  <g fill="none" stroke-linecap="round" stroke-linejoin="round" filter="url(#softGlow)">
    <circle cx="128" cy="126" r="49" fill="#0b2b78" stroke="url(#net)" stroke-width="8"/>
    <path d="M79 126h98M128 77c18 16 27 32 27 49s-9 33-27 49M128 77c-18 16-27 32-27 49s9 33 27 49" stroke="#d9ffff" stroke-width="5"/>
    <path d="M92 99c20 8 52 8 72 0M92 153c20-8 52-8 72 0" stroke="#43b7ff" stroke-width="5"/>
    <circle cx="89" cy="90" r="7" fill="#86ffff"/>
    <circle cx="180" cy="112" r="7" fill="#86ffff"/>
    <circle cx="151" cy="176" r="7" fill="#86ffff"/>
    <path d="M96 93l25 20M173 115l-31 28M148 170l-13-27" stroke="#43b7ff" stroke-width="4"/>
  </g>
</svg>
